<?xml version="1.0" encoding="iso-8859-1"?>
<!-- Generator: Adobe Illustrator 17.1.0, SVG Export Plug-In . SVG Version: 6.00 Build 0)  -->
<!DOCTYPE svg PUBLIC "-//W3C//DTD SVG 1.1//EN" "http://www.w3.org/Graphics/SVG/1.1/DTD/svg11.dtd">
<svg version="1.1" id="Capa_1" xmlns="http://www.w3.org/2000/svg" xmlns:xlink="http://www.w3.org/1999/xlink" x="0px" y="0px"
	 viewBox="0 0 512 512" style="enable-background:new 0 0 512 512;" xml:space="preserve">
<g>
	<path d="M392.002,136H408c4.418,0,8-3.582,8-8s-3.582-8-8-8h-15.997c-4.418,0-8,3.582-8,8S387.584,136,392.002,136z"/>
	<path d="M496,408h-8V132.65c14.113-6.185,24-20.281,24-36.65c0-4.418-3.582-8-8-8H8c-4.418,0-8,3.582-8,8
		c0,16.369,9.887,30.465,24,36.65V408h-8c-4.418,0-8,3.582-8,8s3.582,8,8,8h480c4.418,0,8-3.582,8-8S500.418,408,496,408z
		 M359.998,136c4.418,0,8-3.582,8-8s-3.582-8-8-8H40c-10.43,0-19.327-6.688-22.629-16h477.258c-3.302,9.313-12.199,16-22.629,16h-32
		c-4.418,0-8,3.582-8,8s3.582,8,8,8h32v240h-24c-4.418,0-8,3.582-8,8s3.582,8,8,8h24v16H216v-16h200c4.418,0,8-3.582,8-8
		s-3.582-8-8-8H216V184c0-8.822-7.178-16-16-16H88c-8.822,0-16,7.178-16,16v192H40V136H359.998z M88,184h112v224H88V184z M40,392h32
		v16H40V392z"/>
	<path d="M264.647,235.151c0.017,0.041,0.042,0.076,0.06,0.116c0.131,0.293,0.279,0.579,0.445,0.855
		c0.029,0.049,0.055,0.101,0.086,0.149c0.183,0.29,0.387,0.566,0.607,0.831c0.055,0.066,0.112,0.129,0.169,0.193
		c0.199,0.225,0.409,0.44,0.634,0.643c0.037,0.034,0.072,0.071,0.11,0.104c0.255,0.221,0.529,0.425,0.815,0.615
		c0.071,0.047,0.143,0.089,0.215,0.133c0.23,0.143,0.469,0.274,0.717,0.394c0.077,0.037,0.151,0.077,0.229,0.112
		c0.039,0.018,0.075,0.039,0.115,0.056c0.278,0.119,0.559,0.218,0.842,0.304c0.051,0.016,0.104,0.026,0.156,0.04
		c0.289,0.081,0.578,0.144,0.869,0.191c0.084,0.014,0.168,0.027,0.253,0.038c0.343,0.045,0.686,0.075,1.028,0.075
		c0.001,0,0.003,0,0.004,0s0.003,0,0.004,0c0.342,0,0.685-0.031,1.029-0.075c0.084-0.011,0.167-0.024,0.251-0.038
		c0.292-0.048,0.583-0.111,0.873-0.193c0.05-0.014,0.101-0.024,0.151-0.039c0.283-0.086,0.565-0.185,0.843-0.304
		c0.04-0.017,0.076-0.039,0.116-0.057c0.077-0.034,0.15-0.074,0.225-0.11c0.25-0.121,0.49-0.253,0.722-0.397
		c0.071-0.043,0.142-0.085,0.211-0.131c0.287-0.191,0.562-0.395,0.818-0.617c0.036-0.031,0.069-0.067,0.105-0.099
		c0.227-0.204,0.439-0.421,0.639-0.647c0.056-0.063,0.112-0.125,0.166-0.191c0.22-0.266,0.425-0.542,0.608-0.833
		c0.03-0.048,0.056-0.099,0.085-0.147c0.166-0.276,0.314-0.563,0.446-0.856c0.018-0.04,0.043-0.075,0.06-0.116L296,196.308
		l16.647,38.843c0.017,0.041,0.042,0.076,0.06,0.116c0.131,0.293,0.279,0.579,0.445,0.855c0.029,0.049,0.055,0.101,0.086,0.149
		c0.183,0.29,0.387,0.566,0.607,0.831c0.055,0.066,0.112,0.129,0.169,0.193c0.199,0.225,0.409,0.44,0.634,0.643
		c0.037,0.034,0.072,0.071,0.11,0.104c0.255,0.221,0.529,0.425,0.815,0.615c0.071,0.047,0.143,0.089,0.215,0.133
		c0.23,0.143,0.469,0.274,0.717,0.394c0.077,0.037,0.151,0.077,0.229,0.112c0.039,0.018,0.075,0.039,0.115,0.056
		c0.278,0.119,0.559,0.218,0.842,0.304c0.051,0.016,0.104,0.026,0.156,0.04c0.289,0.081,0.578,0.144,0.869,0.191
		c0.084,0.014,0.168,0.027,0.253,0.038c0.343,0.045,0.686,0.075,1.028,0.075c0.001,0,0.003,0,0.004,0s0.003,0,0.004,0
		c0.342,0,0.685-0.031,1.029-0.075c0.084-0.011,0.167-0.024,0.251-0.038c0.292-0.048,0.583-0.111,0.873-0.193
		c0.05-0.014,0.101-0.024,0.151-0.039c0.283-0.086,0.565-0.185,0.843-0.304c0.04-0.017,0.076-0.039,0.116-0.057
		c0.077-0.034,0.15-0.074,0.225-0.11c0.25-0.121,0.49-0.253,0.722-0.397c0.071-0.043,0.142-0.085,0.211-0.131
		c0.287-0.191,0.562-0.395,0.818-0.617c0.036-0.031,0.069-0.067,0.105-0.099c0.227-0.204,0.439-0.421,0.639-0.647
		c0.056-0.063,0.112-0.125,0.166-0.191c0.22-0.266,0.425-0.542,0.608-0.833c0.03-0.048,0.056-0.099,0.085-0.147
		c0.166-0.276,0.314-0.563,0.446-0.856c0.018-0.04,0.043-0.075,0.06-0.116l24-56c1.741-4.061-0.141-8.764-4.202-10.504
		c-4.064-1.742-8.765,0.141-10.504,4.202L320,211.692l-16.647-38.843c-0.033-0.078-0.075-0.149-0.11-0.225
		c-0.063-0.135-0.126-0.271-0.197-0.403c-0.059-0.11-0.123-0.216-0.187-0.323c-0.069-0.116-0.139-0.232-0.214-0.344
		c-0.074-0.11-0.151-0.216-0.23-0.322c-0.076-0.103-0.153-0.205-0.234-0.304c-0.085-0.104-0.173-0.203-0.263-0.302
		c-0.085-0.094-0.172-0.188-0.262-0.278c-0.094-0.094-0.19-0.183-0.288-0.272c-0.095-0.086-0.191-0.172-0.292-0.254
		c-0.102-0.084-0.207-0.163-0.313-0.241c-0.103-0.076-0.207-0.153-0.315-0.224c-0.114-0.077-0.232-0.147-0.35-0.218
		c-0.106-0.063-0.21-0.126-0.32-0.185c-0.132-0.07-0.266-0.133-0.401-0.196c-0.077-0.036-0.149-0.078-0.227-0.111
		c-0.029-0.012-0.058-0.02-0.087-0.032c-0.137-0.057-0.276-0.105-0.416-0.154c-0.114-0.04-0.226-0.083-0.341-0.118
		c-0.12-0.036-0.243-0.064-0.365-0.095c-0.135-0.034-0.27-0.071-0.405-0.098c-0.102-0.02-0.205-0.031-0.308-0.048
		c-0.155-0.024-0.31-0.051-0.465-0.066c-0.097-0.01-0.195-0.01-0.292-0.016c-0.161-0.01-0.321-0.021-0.481-0.021
		c-0.106,0-0.212,0.01-0.318,0.014c-0.152,0.006-0.304,0.01-0.454,0.025c-0.112,0.011-0.225,0.032-0.337,0.048
		c-0.145,0.021-0.29,0.038-0.434,0.067c-0.108,0.021-0.215,0.052-0.323,0.078c-0.149,0.036-0.298,0.07-0.444,0.115
		c-0.098,0.03-0.196,0.068-0.294,0.101c-0.154,0.053-0.308,0.107-0.458,0.169c-0.027,0.011-0.054,0.019-0.08,0.03
		c-0.073,0.031-0.14,0.07-0.211,0.104c-0.142,0.066-0.284,0.132-0.422,0.207c-0.105,0.056-0.206,0.117-0.307,0.177
		c-0.122,0.072-0.242,0.145-0.36,0.224c-0.106,0.071-0.207,0.146-0.309,0.221c-0.107,0.079-0.213,0.159-0.317,0.244
		c-0.1,0.082-0.195,0.167-0.291,0.254c-0.098,0.088-0.194,0.177-0.288,0.271c-0.091,0.091-0.178,0.185-0.264,0.28
		c-0.089,0.098-0.176,0.196-0.26,0.299c-0.082,0.101-0.16,0.204-0.237,0.308s-0.154,0.208-0.227,0.317
		c-0.076,0.114-0.147,0.231-0.217,0.349c-0.063,0.105-0.126,0.21-0.185,0.32c-0.071,0.132-0.134,0.268-0.198,0.404
		c-0.035,0.076-0.077,0.147-0.11,0.225L272,211.692l-16.647-38.843c-1.74-4.061-6.443-5.941-10.504-4.202
		c-4.061,1.74-5.942,6.443-4.202,10.504L264.647,235.151z"/>
	<path d="M396,240h36c4.418,0,8-3.582,8-8s-3.582-8-8-8h-36c-11.028,0-20-8.972-20-20s8.972-20,20-20h36c4.418,0,8-3.582,8-8
		s-3.582-8-8-8h-36c-19.851,0-36,16.149-36,36S376.149,240,396,240z"/>
	<path d="M184,280c-4.418,0-8,3.582-8,8v16c0,4.418,3.582,8,8,8s8-3.582,8-8v-16C192,283.582,188.418,280,184,280z"/>
</g>
<g>
</g>
<g>
</g>
<g>
</g>
<g>
</g>
<g>
</g>
<g>
</g>
<g>
</g>
<g>
</g>
<g>
</g>
<g>
</g>
<g>
</g>
<g>
</g>
<g>
</g>
<g>
</g>
<g>
</g>
</svg>
