<?xml version="1.0" encoding="iso-8859-1"?>
<!-- Generator: Adobe Illustrator 19.0.0, SVG Export Plug-In . SVG Version: 6.00 Build 0)  -->
<svg version="1.1" id="Capa_1" xmlns="http://www.w3.org/2000/svg" xmlns:xlink="http://www.w3.org/1999/xlink" x="0px" y="0px"
	 viewBox="0 0 512 512" style="enable-background:new 0 0 512 512;" xml:space="preserve">
<g>
	<g>
		<path d="M469.333,64H42.667C19.135,64,0,83.135,0,106.667v298.667C0,428.865,19.135,448,42.667,448h426.667
			C492.865,448,512,428.865,512,405.333V106.667C512,83.135,492.865,64,469.333,64z M288,277.333c0,1.854-0.49,3.677-1.406,5.292
			l-42.667,74.667c-1.896,3.323-5.438,5.375-9.26,5.375H192c-4.042,0-7.729-2.281-9.542-5.896l-11.792-23.583l-11.792,23.583
			c-1.813,3.615-5.5,5.896-9.542,5.896h-42.667c-3.823,0-7.365-2.052-9.26-5.375L54.74,282.625
			c-0.917-1.615-1.406-3.438-1.406-5.292V160c0-5.896,4.771-10.667,10.667-10.667h42.667c5.896,0,10.667,4.771,10.667,10.667
			v104.146L128,285.479l10.667-21.333v-82.813c0-5.896,4.771-10.667,10.667-10.667H192c5.896,0,10.667,4.771,10.667,10.667v82.813
			l10.667,21.333L224,264.146V160c0-5.896,4.771-10.667,10.667-10.667h42.667c5.896,0,10.667,4.771,10.667,10.667V277.333z
			 M384,298.667c5.885,0,10.667-4.781,10.667-10.667c0-5.896,4.771-10.667,10.667-10.667H448c5.896,0,10.667,4.771,10.667,10.667
			c0,41.167-33.5,74.667-74.667,74.667c-41.167,0-74.667-33.5-74.667-74.667v-64c0-41.167,33.5-74.667,74.667-74.667
			c41.167,0,74.667,33.5,74.667,74.667c0,5.896-4.771,10.667-10.667,10.667h-42.667c-5.896,0-10.667-4.771-10.667-10.667
			c0-5.885-4.781-10.667-10.667-10.667c-5.885,0-10.667,4.781-10.667,10.667v64C373.333,293.885,378.115,298.667,384,298.667z"/>
	</g>
</g>
<g>
</g>
<g>
</g>
<g>
</g>
<g>
</g>
<g>
</g>
<g>
</g>
<g>
</g>
<g>
</g>
<g>
</g>
<g>
</g>
<g>
</g>
<g>
</g>
<g>
</g>
<g>
</g>
<g>
</g>
</svg>
