<?xml version="1.0" encoding="iso-8859-1"?>
<!-- Generator: Adobe Illustrator 19.0.0, SVG Export Plug-In . SVG Version: 6.00 Build 0)  -->
<svg version="1.1" id="Capa_1" xmlns="http://www.w3.org/2000/svg" xmlns:xlink="http://www.w3.org/1999/xlink" x="0px" y="0px"
	 viewBox="0 0 512 512" style="enable-background:new 0 0 512 512;" xml:space="preserve">
<g transform="matrix(1.25 0 0 -1.25 0 45)">
	<g>
		<g>
			<path style="fill:#000000;" d="M409.6-328.089c0-25.134-20.378-45.511-45.511-45.511H45.511C20.378-373.6,0-353.222,0-328.089
				V-9.511C0,15.622,20.378,36,45.511,36h318.578C389.222,36,409.6,15.622,409.6-9.511V-328.089z"/>
			<g>
				<path style="fill:#FFFFFF;" d="M19.285-116.485c-0.751,3.254-1.001,5.006-1.001,8.511c0,8.01,6.758,16.521,17.772,16.521
					c12.015,0,17.772-7.009,20.025-18.022l21.276-106.405h0.501l32.552,109.659c2.753,9.011,10.263,14.768,19.524,14.768
					c9.262,0,16.771-5.757,19.524-14.768l32.552-109.659h0.501l21.276,106.405c2.253,11.014,8.01,18.022,20.025,18.022
					c11.014,0,17.772-8.511,17.772-16.521c0-3.504-0.239-5.257-1.001-8.511l-31.79-136.693
					c-2.503-10.513-10.763-19.524-24.781-19.524c-12.277,0-21.788,8.01-24.781,18.273l-29.047,96.631h-0.501l-29.047-96.631
					c-2.992-10.263-12.504-18.273-24.769-18.273c-14.029,0-22.289,9.011-24.792,19.524L19.285-116.485z"/>
				<path style="fill:#FFFFFF;" d="M333.926-89.952c18.284,0,53.817-6.007,53.817-28.035c0-9.011-6.235-16.782-15.508-16.782
					c-10.263,0-17.26,8.761-38.309,8.761c-31.05,0-47.059-26.283-47.059-56.821c0-29.798,16.282-55.33,47.059-55.33
					c21.049,0,29.559,10.513,39.822,10.513c11.264,0,16.509-11.253,16.509-17.021c0-24.041-37.797-29.537-56.331-29.537
					c-50.813,0-86.107,40.3-86.107,92.126C247.819-130.013,282.863-89.952,333.926-89.952"/>
			</g>
		</g>
	</g>
</g>
<g>
</g>
<g>
</g>
<g>
</g>
<g>
</g>
<g>
</g>
<g>
</g>
<g>
</g>
<g>
</g>
<g>
</g>
<g>
</g>
<g>
</g>
<g>
</g>
<g>
</g>
<g>
</g>
<g>
</g>
</svg>
